{"title":"The School In the Woods (2010) WEBRip","uid":8406170,"size":1043008840,"categoryP":"video","categoryS":"movies","magnet":"?xt=urn:btih:4f05d945710b93f5a02f89c743632738b99335f3&amp;dn=The+School+In+the+Woods+%282010%29+WEBRip&amp;tr=udp%3A%2F%2Ftracker.openbittorrent.com%3A80&amp;tr=udp%3A%2F%2Fopen.demonii.com%3A1337&amp;tr=udp%3A%2F%2Ftracker.coppersurfer.tk%3A6969&amp;tr=udp%3A%2F%2Fexodus.desync.com%3A6969","seeders":1,"leechers":0,"uploader":"RadioResearch","files":3,"time":1366812205,"description":"*******************************************************************************\n                     The School In the Woods (2010) WEBRip\n*******************************************************************************\n\n-------------------------------------------------------------------------------\n                              General Information\n-------------------------------------------------------------------------------\nType.................: Movie\n\n\n\nVideo Format.........: AVI\nVideo Bitrate........: 1362\nResolution...........: 640 x 360\nColor................: 8 bit\nFPS..................: 24.000\nSource...............: WEB 16:9\nOriginal Format......: NTSC\nGenre................: Horror\nIMDb Rating..........: 4.9\nMovie Information....: http://www.imdb.com/title/tt1764691/\n\n-------------------------------------------------------------------------------\n                               Post Information\n-------------------------------------------------------------------------------\nPosted by............: RadioResearch\nPosted on............: 4/24/2013\n\n-------------------------------------------------------------------------------\n                                 Release Notes\n-------------------------------------------------------------------------------\nSEEDBOX SUPPORTED!!\n\nIn the fall of 2009, a group of college students ventured into the backwoods of \nLouisiana to find an abandoned school. A place with a history of violent deaths \ngoing back seventy years or more, before the school was even built. For a class \nproject, they filmed the school to find evidence of the paranormal. To hunt for \nghosts. They found what they were looking for. And now the school in the woods \nis going to teach them a lesson in fear. Director Tony Fox's feature film debut \nis an unconventional take on the horror film genre - - an experimental horror \nplay. Filming 10 minute, one-take scenes, he's created a tense filled roller-\ncoaster ride with old school scares, influenced by Japanese horror films and the \n&quot;backwoods&quot; horror films of the seventies. As the characters relationships begin \nto break down, we're never really sure if it's simple human nature or if &quot;the \nschool&quot; is driving them to self- destruction with an inevitable, creepy and \nshocking aftermath. \n\nEnjoy!\nRadioResearch\n\nGeneral\nComplete name                            : G:The School In the Woods (2010) \nWEBRipThe School In The Woods.avi\nFormat                                   : AVI\nFormat/Info                              : Audio Video Interleave\nFile size                                : 995 MiB\nDuration                                 : 1h 42mn\nOverall bit rate                         : 1 362 Kbps\n\nVideo\nID                                       : 0\nFormat                                   : mp43\nCodec ID                                 : mp43\nDuration                                 : 1h 42mn\nBit rate                                 : 1 222 Kbps\nWidth                                    : 640 pixels\nHeight                                   : 360 pixels\nDisplay aspect ratio                     : 16:9\nFrame rate                               : 24.000 fps\nBits/(Pixel*Frame)                       : 0.221\nStream size                              : 892 MiB (90%)\n\nAudio\nID                                       : 1\nFormat                                   : MPEG Audio\nFormat version                           : Version 1\nFormat profile                           : Layer 3\nMode                                     : Joint stereo\nMode extension                           : MS Stereo\nCodec ID                                 : 55\nCodec ID/Hint                            : MP3\nDuration                                 : 1h 42mn\nBit rate mode                            : Constant\nBit rate                                 : 128 Kbps\nChannel(s)                               : 2 channels\nSampling rate                            : 44.1 KHz\nCompression mode                         : Lossy\nStream size                              : 93.5 MiB (9%)\nAlignment                                : Aligned on interleaves\nInterleave, duration                     : 26 ms (0.63 video frame)\nWriting library                          : LAME3.98.2\n\n\n\n\n-------------------------------------------------------------------------------\nGenerated with Cool NFO Creator - http://fly.to/coolbeans\n-------------------------------------------------------------------------------\n","torrent":{"xt":"urn:btih:4f05d945710b93f5a02f89c743632738b99335f3","amp;dn":"The+School+In+the+Woods+%282010%29+WEBRip","amp;tr":["udp%3A%2F%2Ftracker.openbittorrent.com%3A80","udp%3A%2F%2Fopen.demonii.com%3A1337","udp%3A%2F%2Ftracker.coppersurfer.tk%3A6969","udp%3A%2F%2Fexodus.desync.com%3A6969"],"infoHash":"4f05d945710b93f5a02f89c743632738b99335f3","infoHashBuffer":{"type":"Buffer","data":[79,5,217,69,113,11,147,245,160,47,137,199,67,99,39,56,185,147,53,243]},"announce":[],"urlList":[]}}